# 3ds Max Wavefront OBJ Exporter v0.97b - (c)2007 guruware
# File Created: 22.10.2015 23:08:01

mtllib 3d-model.mtl

#
# object Group_005
#

v  -201.5696 0.0000 114.2135
v  -201.5696 0.0000 -175.7865
v  28.4304 0.0000 -175.7865
v  28.4304 0.0000 114.2135
v  -201.5696 8.0000 114.2135
v  -201.5696 8.0000 -175.7865
v  28.4304 8.0000 114.2135
v  28.4304 6.8571 114.2135
v  28.4304 6.8571 -175.7865
v  28.4304 8.0000 -175.7865
v  28.4304 1.1429 -175.7865
v  28.4304 2.2857 -175.7865
v  28.4304 3.4286 -175.7865
v  28.4304 4.5714 -175.7865
v  28.4304 5.7143 -175.7865
v  28.4304 1.1429 114.2135
v  28.4304 2.2857 114.2135
v  28.4304 3.4286 114.2135
v  28.4304 4.5714 114.2135
v  28.4304 5.7143 114.2135
# 20 vertices

vn 0.0000 -1.0000 -0.0000
vn -1.0000 0.0000 -0.0000
vn 1.0000 0.0000 0.0000
vn 0.0000 0.0000 -1.0000
vn 0.0000 0.0000 1.0000
# 5 vertex normals

vt 0.0000 0.0000 0.0000
# 1 texture coords

g Group_005
usemtl wire_134110008
s off
f 1/1/1 2/1/1 3/1/1 4/1/1 
f 1/1/2 5/1/2 6/1/2 2/1/2 
f 7/1/3 8/1/3 9/1/3 10/1/3 
f 3/1/4 2/1/4 6/1/4 11/1/4 
f 12/1/4 11/1/4 6/1/4 13/1/4 
f 14/1/4 13/1/4 6/1/4 15/1/4 
f 9/1/4 15/1/4 6/1/4 10/1/4 
f 16/1/3 4/1/3 3/1/3 11/1/3 
f 1/1/5 4/1/5 16/1/5 5/1/5 
f 5/1/5 16/1/5 17/1/5 18/1/5 
f 5/1/5 18/1/5 19/1/5 20/1/5 
f 5/1/5 20/1/5 8/1/5 7/1/5 
f 17/1/3 16/1/3 11/1/3 12/1/3 
f 18/1/3 17/1/3 12/1/3 13/1/3 
f 19/1/3 18/1/3 13/1/3 14/1/3 
f 20/1/3 19/1/3 14/1/3 15/1/3 
f 8/1/3 20/1/3 15/1/3 9/1/3 
f 5/1/1 6/1/1 10/1/1 7/1/1 
# 18 polygons

#
# object Group_003
#

v  -184.1696 8.0000 85.4135
v  -92.6313 8.0000 -189.7605
v  125.6102 8.0000 -117.1612
v  34.0719 8.0000 158.0129
v  -184.1696 16.0000 85.4135
v  -92.6313 16.0000 -189.7605
v  34.0719 16.0000 158.0129
v  34.0719 14.8571 158.0129
v  125.6102 14.8571 -117.1612
v  125.6102 16.0000 -117.1612
v  125.6102 9.1429 -117.1612
v  125.6102 10.2857 -117.1612
v  125.6102 11.4286 -117.1612
v  125.6102 12.5714 -117.1612
v  125.6102 13.7143 -117.1612
v  34.0719 9.1429 158.0129
v  34.0719 10.2857 158.0129
v  34.0719 11.4286 158.0129
v  34.0719 12.5714 158.0129
v  34.0719 13.7143 158.0129
# 20 vertices

vn 0.0000 -1.0000 -0.0000
vn -0.9489 0.0000 -0.3156
vn 0.9489 0.0000 0.3156
vn 0.3156 0.0000 -0.9489
vn -0.3156 0.0000 0.9489
# 5 vertex normals

vt 0.0000 0.0000 0.0000
# 1 texture coords

g Group_003
usemtl wire_224086086
s off
f 21/2/6 22/2/6 23/2/6 24/2/6 
f 21/2/7 25/2/7 26/2/7 22/2/7 
f 27/2/8 28/2/8 29/2/8 30/2/8 
f 23/2/9 22/2/9 26/2/9 31/2/9 
f 32/2/9 31/2/9 26/2/9 33/2/9 
f 34/2/9 33/2/9 26/2/9 35/2/9 
f 29/2/9 35/2/9 26/2/9 30/2/9 
f 36/2/8 24/2/8 23/2/8 31/2/8 
f 21/2/10 24/2/10 36/2/10 25/2/10 
f 25/2/10 36/2/10 37/2/10 38/2/10 
f 25/2/10 38/2/10 39/2/10 40/2/10 
f 25/2/10 40/2/10 28/2/10 27/2/10 
f 37/2/8 36/2/8 31/2/8 32/2/8 
f 38/2/8 37/2/8 32/2/8 33/2/8 
f 39/2/8 38/2/8 33/2/8 34/2/8 
f 40/2/8 39/2/8 34/2/8 35/2/8 
f 28/2/8 40/2/8 35/2/8 29/2/8 
f 25/2/6 26/2/6 30/2/6 27/2/6 
# 18 polygons

#
# object Group_001
#

v  -151.4696 16.0000 60.8135
v  -151.4696 24.0000 60.8135
v  11.1157 24.0000 -179.3240
v  11.1157 16.0000 -179.3240
v  201.5696 16.0000 -50.3770
v  38.9843 16.0000 189.7605
v  201.5696 17.1429 -50.3770
v  201.5696 18.2857 -50.3770
v  201.5696 19.4286 -50.3770
v  201.5696 20.5714 -50.3770
v  201.5696 21.7143 -50.3770
v  201.5696 22.8571 -50.3770
v  201.5696 24.0000 -50.3770
v  38.9843 24.0000 189.7605
v  38.9843 22.8571 189.7605
v  38.9843 17.1429 189.7605
v  38.9843 18.2857 189.7605
v  38.9843 19.4286 189.7605
v  38.9843 20.5714 189.7605
v  38.9843 21.7143 189.7605
# 20 vertices

vn -0.8281 0.0000 -0.5606
vn 0.0000 -1.0000 -0.0000
vn 0.5606 0.0000 -0.8281
vn 0.8281 0.0000 0.5606
vn -0.5606 0.0000 0.8281
# 5 vertex normals

vt 0.0000 0.0000 0.0000
# 1 texture coords

g Group_001
usemtl wire_177028149
s off
f 41/3/11 42/3/11 43/3/11 44/3/11 
f 41/3/12 44/3/12 45/3/12 46/3/12 
f 45/3/13 44/3/13 43/3/13 47/3/13 
f 48/3/13 47/3/13 43/3/13 49/3/13 
f 50/3/13 49/3/13 43/3/13 51/3/13 
f 52/3/13 51/3/13 43/3/13 53/3/13 
f 54/3/14 55/3/14 52/3/14 53/3/14 
f 56/3/14 46/3/14 45/3/14 47/3/14 
f 41/3/15 46/3/15 56/3/15 42/3/15 
f 42/3/15 56/3/15 57/3/15 58/3/15 
f 42/3/15 58/3/15 59/3/15 60/3/15 
f 42/3/15 60/3/15 55/3/15 54/3/15 
f 57/3/14 56/3/14 47/3/14 48/3/14 
f 58/3/14 57/3/14 48/3/14 49/3/14 
f 59/3/14 58/3/14 49/3/14 50/3/14 
f 60/3/14 59/3/14 50/3/14 51/3/14 
f 55/3/14 60/3/14 51/3/14 52/3/14 
f 42/3/12 43/3/12 53/3/12 54/3/12 
# 18 polygons

